HIERARCHY
ROOT bvh1s5g
{
	OFFSET 11.3 40.5 -1.7
	CHANNELS 0
	JOINT sm-G-Z6
	{
		OFFSET 1.844 -24.157 -2.098
		CHANNELS 6 Xposition Yposition Zposition Xrotation Yrotation Zrotation
		End Site
		{
			OFFSET 0.249 7.931 -0.173
		}
	}
	JOINT sm-T-Z15
	{
		OFFSET 6.427 -10.249 -6.747
		CHANNELS 6 Xposition Yposition Zposition Xrotation Yrotation Zrotation
		End Site
		{
			OFFSET -1.867 13.916 -0.843
		}
	}
	JOINT sm-T-Z23
	{
		OFFSET -0.294 11.639 -3.186
		CHANNELS 6 Xposition Yposition Zposition Xrotation Yrotation Zrotation
		End Site
		{
			OFFSET -13.051 -4.639 0.813
		}
	}
	JOINT sm-E-Z35
	{
		OFFSET -13.891 3.224 -2.768
		CHANNELS 6 Xposition Yposition Zposition Xrotation Yrotation Zrotation
		End Site
		{
			OFFSET 7.119 17.064 -3.868
		}
	}
	JOINT sm-S-Z45
	{
		OFFSET -11.364 23.226 -0.461
		CHANNELS 6 Xposition Yposition Zposition Xrotation Yrotation Zrotation
		End Site
		{
			OFFSET 1.648 -8.452 -8.179
		}
	}
	JOINT sm-T-Z54
	{
		OFFSET -10.093 6.179 -14.285
		CHANNELS 6 Xposition Yposition Zposition Xrotation Yrotation Zrotation
		End Site
		{
			OFFSET -4.439 9.547 8.784
		}
	}
	JOINT sm-G-Z73
	{
		OFFSET 2.827 -2.446 -1.186
		CHANNELS 6 Xposition Yposition Zposition Xrotation Yrotation Zrotation
		End Site
		{
			OFFSET -2.642 -6.298 6.902
		}
	}
	JOINT sm-T-Z81
	{
		OFFSET 0.116 -3.193 9.122
		CHANNELS 6 Xposition Yposition Zposition Xrotation Yrotation Zrotation
		End Site
		{
			OFFSET -4.550 5.959 -1.406
		}
	}
	JOINT sm-H-Z89
	{
		OFFSET -9.017 1.386 4.208
		CHANNELS 6 Xposition Yposition Zposition Xrotation Yrotation Zrotation
		End Site
		{
			OFFSET 1.500 -13.145 -7.033
		}
	}
	JOINT sm-T-Z102
	{
		OFFSET -6.445 -15.351 -1.828
		CHANNELS 6 Xposition Yposition Zposition Xrotation Yrotation Zrotation
		End Site
		{
			OFFSET 2.099 5.187 11.089
		}
	}
	JOINT sm-_-Z117
	{
		OFFSET -14.953 -19.971 -0.760
		CHANNELS 6 Xposition Yposition Zposition Xrotation Yrotation Zrotation
		End Site
		{
			OFFSET 8.790 -6.470 1.908
		}
	}
	JOINT sm-_-Z126
	{
		OFFSET -0.744 -31.044 5.086
		CHANNELS 6 Xposition Yposition Zposition Xrotation Yrotation Zrotation
		End Site
		{
			OFFSET 4.331 3.593 4.375
		}
	}
	JOINT sm-_-Z136
	{
		OFFSET 4.965 -17.705 13.483
		CHANNELS 6 Xposition Yposition Zposition Xrotation Yrotation Zrotation
		End Site
		{
			OFFSET -4.426 -0.012 -6.125
		}
	}
	JOINT sm-H-Z145
	{
		OFFSET -3.810 -21.606 11.624
		CHANNELS 6 Xposition Yposition Zposition Xrotation Yrotation Zrotation
		End Site
		{
			OFFSET 6.632 -1.991 16.228
		}
	}
	JOINT sm-_-Z160
	{
		OFFSET -4.092 -22.041 29.257
		CHANNELS 6 Xposition Yposition Zposition Xrotation Yrotation Zrotation
		End Site
		{
			OFFSET -9.812 5.172 -11.688
		}
	}
	JOINT sm-H-Z175
	{
		OFFSET -17.502 -22.539 10.404
		CHANNELS 6 Xposition Yposition Zposition Xrotation Yrotation Zrotation
		End Site
		{
			OFFSET 11.069 -8.392 5.470
		}
	}
	JOINT sm-T-Z188
	{
		OFFSET -3.096 -34.577 17.358
		CHANNELS 6 Xposition Yposition Zposition Xrotation Yrotation Zrotation
		End Site
		{
			OFFSET -8.182 -9.960 1.795
		}
	}
	JOINT sm-H-Z197
	{
		OFFSET -12.858 -39.265 18.669
		CHANNELS 6 Xposition Yposition Zposition Xrotation Yrotation Zrotation
		End Site
		{
			OFFSET -17.126 9.554 -4.870
		}
	}
	JOINT sm-S-Z217
	{
		OFFSET -27.860 -19.500 3.048
		CHANNELS 6 Xposition Yposition Zposition Xrotation Yrotation Zrotation
		End Site
		{
			OFFSET 0.851 -2.979 8.639
		}
	}
	JOINT sm-E-Z226
	{
		OFFSET -21.763 -21.981 20.886
		CHANNELS 6 Xposition Yposition Zposition Xrotation Yrotation Zrotation
		End Site
		{
			OFFSET 12.684 -8.644 5.393
		}
	}
	JOINT sm-_-Z234
	{
		OFFSET -0.950 -33.604 28.783
		CHANNELS 6 Xposition Yposition Zposition Xrotation Yrotation Zrotation
		End Site
		{
			OFFSET -10.941 0.022 -3.039
		}
	}
	JOINT sm-G-Z251
	{
		OFFSET -38.336 -22.022 15.125
		CHANNELS 6 Xposition Yposition Zposition Xrotation Yrotation Zrotation
		End Site
		{
			OFFSET -1.263 2.499 -10.524
		}
	}
	JOINT sm-_-Z261
	{
		OFFSET -35.826 -25.142 6.879
		CHANNELS 6 Xposition Yposition Zposition Xrotation Yrotation Zrotation
		End Site
		{
			OFFSET -0.056 -9.576 1.447
		}
	}
	JOINT sm-S-Z274
	{
		OFFSET -36.467 -46.481 6.141
		CHANNELS 6 Xposition Yposition Zposition Xrotation Yrotation Zrotation
		End Site
		{
			OFFSET -6.255 1.557 5.882
		}
	}
	JOINT sm-G-Z288
	{
		OFFSET -45.419 -31.975 3.661
		CHANNELS 6 Xposition Yposition Zposition Xrotation Yrotation Zrotation
		End Site
		{
			OFFSET 2.388 6.678 1.740
		}
	}
	JOINT sm-_-Z298
	{
		OFFSET -35.836 -27.528 -0.420
		CHANNELS 6 Xposition Yposition Zposition Xrotation Yrotation Zrotation
		End Site
		{
			OFFSET 6.495 -6.491 1.149
		}
	}
	JOINT sm-H-Z308
	{
		OFFSET -28.506 -38.668 5.122
		CHANNELS 6 Xposition Yposition Zposition Xrotation Yrotation Zrotation
		End Site
		{
			OFFSET 5.638 -5.233 12.578
		}
	}
	JOINT sm-H-Z324
	{
		OFFSET -33.184 -45.956 21.569
		CHANNELS 6 Xposition Yposition Zposition Xrotation Yrotation Zrotation
		End Site
		{
			OFFSET -12.743 13.010 -7.820
		}
	}
	JOINT sm-S-Z349
	{
		OFFSET -70.683 -21.762 19.345
		CHANNELS 6 Xposition Yposition Zposition Xrotation Yrotation Zrotation
		End Site
		{
			OFFSET 8.427 -6.104 -1.554
		}
	}
	JOINT sm-H-Z360
	{
		OFFSET -54.750 -36.818 15.162
		CHANNELS 6 Xposition Yposition Zposition Xrotation Yrotation Zrotation
		End Site
		{
			OFFSET 7.986 -3.578 5.900
		}
	}
	JOINT sm-H-Z373
	{
		OFFSET -56.742 -36.857 25.240
		CHANNELS 6 Xposition Yposition Zposition Xrotation Yrotation Zrotation
		End Site
		{
			OFFSET -0.077 8.825 0.389
		}
	}
	JOINT sm-T-Z388
	{
		OFFSET -55.770 -22.164 43.455
		CHANNELS 6 Xposition Yposition Zposition Xrotation Yrotation Zrotation
		End Site
		{
			OFFSET -4.471 1.013 -15.818
		}
	}
	JOINT sm-H-Z398
	{
		OFFSET -56.595 -19.316 18.996
		CHANNELS 6 Xposition Yposition Zposition Xrotation Yrotation Zrotation
		End Site
		{
			OFFSET 36.551 -18.534 7.230
		}
	}
	JOINT sm-_-Z433
	{
		OFFSET -6.994 -31.565 32.955
		CHANNELS 6 Xposition Yposition Zposition Xrotation Yrotation Zrotation
		End Site
		{
			OFFSET -6.979 9.477 -11.464
		}
	}
	JOINT sm-_-Z443
	{
		OFFSET -22.331 -13.038 15.926
		CHANNELS 6 Xposition Yposition Zposition Xrotation Yrotation Zrotation
		End Site
		{
			OFFSET -10.602 8.350 -3.832
		}
	}
	JOINT sm-H-Z454
	{
		OFFSET -33.348 -9.748 18.582
		CHANNELS 6 Xposition Yposition Zposition Xrotation Yrotation Zrotation
		End Site
		{
			OFFSET 39.844 8.262 10.271
		}
	}
	JOINT sm-_-Z487
	{
		OFFSET 2.722 5.674 29.544
		CHANNELS 6 Xposition Yposition Zposition Xrotation Yrotation Zrotation
		End Site
		{
			OFFSET -13.862 -4.902 -0.609
		}
	}
	JOINT sm-H-Z497
	{
		OFFSET -18.687 0.578 27.655
		CHANNELS 6 Xposition Yposition Zposition Xrotation Yrotation Zrotation
		End Site
		{
			OFFSET -9.865 -3.983 2.512
		}
	}
	JOINT sm-S-Z510
	{
		OFFSET -33.488 -4.471 31.146
		CHANNELS 6 Xposition Yposition Zposition Xrotation Yrotation Zrotation
		End Site
		{
			OFFSET -5.740 -3.744 1.077
		}
	}
	JOINT sm-T-Z518
	{
		OFFSET -45.000 -9.555 33.257
		CHANNELS 6 Xposition Yposition Zposition Xrotation Yrotation Zrotation
		End Site
		{
			OFFSET -5.038 3.415 -4.648
		}
	}
	JOINT sm-H-Z526
	{
		OFFSET -46.707 -1.126 25.799
		CHANNELS 6 Xposition Yposition Zposition Xrotation Yrotation Zrotation
		End Site
		{
			OFFSET 9.768 6.437 5.922
		}
	}
	JOINT sm-T-Z538
	{
		OFFSET -32.460 9.264 29.081
		CHANNELS 6 Xposition Yposition Zposition Xrotation Yrotation Zrotation
		End Site
		{
			OFFSET 2.801 -3.084 -5.102
		}
	}
	JOINT sm-_-Z546
	{
		OFFSET -34.531 8.411 15.580
		CHANNELS 6 Xposition Yposition Zposition Xrotation Yrotation Zrotation
		End Site
		{
			OFFSET 2.605 -5.571 -11.599
		}
	}
	JOINT sm-_-Z555
	{
		OFFSET -37.764 0.597 10.659
		CHANNELS 6 Xposition Yposition Zposition Xrotation Yrotation Zrotation
		End Site
		{
			OFFSET 8.746 1.665 9.780
		}
	}
	JOINT sm-_-Z572
	{
		OFFSET -41.169 -4.769 19.300
		CHANNELS 6 Xposition Yposition Zposition Xrotation Yrotation Zrotation
		End Site
		{
			OFFSET -0.964 -7.616 4.977
		}
	}
	JOINT sm-H-Z586
	{
		OFFSET -50.307 -27.907 30.771
		CHANNELS 6 Xposition Yposition Zposition Xrotation Yrotation Zrotation
		End Site
		{
			OFFSET 3.332 -6.785 0.002
		}
	}
	JOINT sm-S-Z596
	{
		OFFSET -41.130 -41.779 27.991
		CHANNELS 6 Xposition Yposition Zposition Xrotation Yrotation Zrotation
		End Site
		{
			OFFSET 2.419 6.063 1.917
		}
	}
	JOINT sm-H-Z611
	{
		OFFSET -34.082 -14.682 29.052
		CHANNELS 6 Xposition Yposition Zposition Xrotation Yrotation Zrotation
		End Site
		{
			OFFSET 19.269 -2.220 2.102
		}
	}
	JOINT sm-B-Z630
	{
		OFFSET -7.709 -15.322 21.914
		CHANNELS 6 Xposition Yposition Zposition Xrotation Yrotation Zrotation
		End Site
		{
			OFFSET -7.050 2.077 -12.649
		}
	}
	JOINT sm-T-Z641
	{
		OFFSET -22.286 -15.184 -3.821
		CHANNELS 6 Xposition Yposition Zposition Xrotation Yrotation Zrotation
		End Site
		{
			OFFSET 6.031 5.146 -0.673
		}
	}
	JOINT sm-H-Z650
	{
		OFFSET -19.454 -3.649 0.963
		CHANNELS 6 Xposition Yposition Zposition Xrotation Yrotation Zrotation
		End Site
		{
			OFFSET 1.834 -0.847 11.583
		}
	}
	JOINT sm-H-Z662
	{
		OFFSET -11.968 -2.126 14.162
		CHANNELS 6 Xposition Yposition Zposition Xrotation Yrotation Zrotation
		End Site
		{
			OFFSET 5.593 4.362 5.017
		}
	}
	JOINT sm-T-Z671
	{
		OFFSET -1.164 4.409 19.869
		CHANNELS 6 Xposition Yposition Zposition Xrotation Yrotation Zrotation
		End Site
		{
			OFFSET 11.073 -3.732 -4.047
		}
	}
	JOINT sm-H-Z679
	{
		OFFSET 16.491 0.824 13.909
		CHANNELS 6 Xposition Yposition Zposition Xrotation Yrotation Zrotation
		End Site
		{
			OFFSET 0.039 4.467 -6.003
		}
	}
	JOINT sm-G-Z691
	{
		OFFSET 24.088 14.575 10.511
		CHANNELS 6 Xposition Yposition Zposition Xrotation Yrotation Zrotation
		End Site
		{
			OFFSET 4.231 -8.489 4.621
		}
	}
	JOINT sm-H-Z701
	{
		OFFSET 20.245 5.840 18.938
		CHANNELS 6 Xposition Yposition Zposition Xrotation Yrotation Zrotation
		End Site
		{
			OFFSET -4.848 9.880 -2.818
		}
	}
	JOINT sm-_-Z714
	{
		OFFSET 6.982 15.833 19.564
		CHANNELS 6 Xposition Yposition Zposition Xrotation Yrotation Zrotation
		End Site
		{
			OFFSET 1.457 -7.470 2.072
		}
	}
	JOINT sm-H-Z732
	{
		OFFSET 4.240 8.807 9.457
		CHANNELS 6 Xposition Yposition Zposition Xrotation Yrotation Zrotation
		End Site
		{
			OFFSET 38.255 31.843 -58.986
		}
	}
	JOINT sm-H-Z791
	{
		OFFSET 45.386 45.305 -55.346
		CHANNELS 6 Xposition Yposition Zposition Xrotation Yrotation Zrotation
		End Site
		{
			OFFSET 4.635 -4.711 -3.329
		}
	}
	JOINT sm-G-Z805
	{
		OFFSET 63.473 40.358 -51.488
		CHANNELS 6 Xposition Yposition Zposition Xrotation Yrotation Zrotation
		End Site
		{
			OFFSET -3.021 3.641 -6.432
		}
	}
	JOINT sm-T-Z815
	{
		OFFSET 58.107 47.284 -63.489
		CHANNELS 6 Xposition Yposition Zposition Xrotation Yrotation Zrotation
		End Site
		{
			OFFSET 0.419 7.511 -0.454
		}
	}
	JOINT sm-T-Z827
	{
		OFFSET 49.873 54.628 -63.596
		CHANNELS 6 Xposition Yposition Zposition Xrotation Yrotation Zrotation
		End Site
		{
			OFFSET -1.756 -6.725 -3.676
		}
	}
	JOINT sm-_-Z839
	{
		OFFSET 40.857 49.036 -64.290
		CHANNELS 6 Xposition Yposition Zposition Xrotation Yrotation Zrotation
		End Site
		{
			OFFSET 0.857 8.162 5.710
		}
	}
	JOINT sm-T-Z848
	{
		OFFSET 44.523 58.691 -52.767
		CHANNELS 6 Xposition Yposition Zposition Xrotation Yrotation Zrotation
		End Site
		{
			OFFSET 9.922 -0.316 3.848
		}
	}
	JOINT sm-_-Z856
	{
		OFFSET 57.735 54.840 -54.914
		CHANNELS 6 Xposition Yposition Zposition Xrotation Yrotation Zrotation
		End Site
		{
			OFFSET -0.912 -4.637 3.523
		}
	}
	JOINT sm-T-Z864
	{
		OFFSET 53.436 49.196 -47.251
		CHANNELS 6 Xposition Yposition Zposition Xrotation Yrotation Zrotation
		End Site
		{
			OFFSET -4.196 -5.458 5.371
		}
	}
	JOINT sm-_-Z873
	{
		OFFSET 50.911 34.235 -38.688
		CHANNELS 6 Xposition Yposition Zposition Xrotation Yrotation Zrotation
		End Site
		{
			OFFSET -3.355 -6.602 3.228
		}
	}
	JOINT sm-_-Z887
	{
		OFFSET 42.718 15.949 -32.348
		CHANNELS 6 Xposition Yposition Zposition Xrotation Yrotation Zrotation
		End Site
		{
			OFFSET -2.786 2.231 -7.114
		}
	}
	JOINT sm-H-Z896
	{
		OFFSET 31.761 21.323 -40.304
		CHANNELS 6 Xposition Yposition Zposition Xrotation Yrotation Zrotation
		End Site
		{
			OFFSET -1.599 9.658 3.199
		}
	}
	JOINT sm-_-Z909
	{
		OFFSET 29.153 35.724 -40.978
		CHANNELS 6 Xposition Yposition Zposition Xrotation Yrotation Zrotation
		End Site
		{
			OFFSET 3.671 -2.561 -6.489
		}
	}
	JOINT sm-H-Z931
	{
		OFFSET 45.691 22.804 -43.568
		CHANNELS 6 Xposition Yposition Zposition Xrotation Yrotation Zrotation
		End Site
		{
			OFFSET 2.062 8.186 -3.291
		}
	}
	JOINT sm-_-Z943
	{
		OFFSET 35.647 34.631 -27.625
		CHANNELS 6 Xposition Yposition Zposition Xrotation Yrotation Zrotation
		End Site
		{
			OFFSET -2.286 5.888 20.964
		}
	}
	JOINT sm-H-Z953
	{
		OFFSET 34.109 37.787 -12.105
		CHANNELS 6 Xposition Yposition Zposition Xrotation Yrotation Zrotation
		End Site
		{
			OFFSET -3.676 -3.462 -12.679
		}
	}
	JOINT sm-T-Z965
	{
		OFFSET 29.560 34.160 -29.237
		CHANNELS 6 Xposition Yposition Zposition Xrotation Yrotation Zrotation
		End Site
		{
			OFFSET -4.950 2.656 5.069
		}
	}
	JOINT sm-H-Z974
	{
		OFFSET 21.385 29.483 -21.160
		CHANNELS 6 Xposition Yposition Zposition Xrotation Yrotation Zrotation
		End Site
		{
			OFFSET 6.769 -0.915 7.136
		}
	}
	JOINT sm-_-Z986
	{
		OFFSET 24.237 24.406 -8.868
		CHANNELS 6 Xposition Yposition Zposition Xrotation Yrotation Zrotation
		End Site
		{
			OFFSET -7.998 1.699 -3.272
		}
	}
	JOINT sm-S-Z1000
	{
		OFFSET 17.162 26.836 -25.911
		CHANNELS 6 Xposition Yposition Zposition Xrotation Yrotation Zrotation
		End Site
		{
			OFFSET 2.707 10.418 3.129
		}
	}
	JOINT sm-H-Z1009
	{
		OFFSET 23.191 41.539 -16.756
		CHANNELS 6 Xposition Yposition Zposition Xrotation Yrotation Zrotation
		End Site
		{
			OFFSET -1.082 -9.591 10.458
		}
	}
	JOINT sm-H-Z1027
	{
		OFFSET 26.821 14.179 2.883
		CHANNELS 6 Xposition Yposition Zposition Xrotation Yrotation Zrotation
		End Site
		{
			OFFSET -3.632 -7.623 -2.809
		}
	}
	JOINT sm-S-Z1039
	{
		OFFSET 25.845 -3.348 3.053
		CHANNELS 6 Xposition Yposition Zposition Xrotation Yrotation Zrotation
		End Site
		{
			OFFSET 1.516 1.811 -8.431
		}
	}
	JOINT sm-H-Z1047
	{
		OFFSET 24.643 -0.199 -11.245
		CHANNELS 6 Xposition Yposition Zposition Xrotation Yrotation Zrotation
		End Site
		{
			OFFSET -5.131 8.328 -2.379
		}
	}
	JOINT sm-H-Z1063
	{
		OFFSET 25.998 10.390 -20.582
		CHANNELS 6 Xposition Yposition Zposition Xrotation Yrotation Zrotation
		End Site
		{
			OFFSET 10.723 -0.385 5.596
		}
	}
	JOINT sm-_-Z1075
	{
		OFFSET 35.399 -0.128 -10.697
		CHANNELS 6 Xposition Yposition Zposition Xrotation Yrotation Zrotation
		End Site
		{
			OFFSET -3.952 -3.078 2.868
		}
	}
	JOINT sm-H-Z1085
	{
		OFFSET 32.805 6.237 -2.860
		CHANNELS 6 Xposition Yposition Zposition Xrotation Yrotation Zrotation
		End Site
		{
			OFFSET 1.694 9.714 -3.288
		}
	}
}
MOTION
Frames: 2
Frame Time: 0.01400
1.91892 -26.00881 -1.39548 1.280 -3.379 2.777 7.16540 -12.41665 -6.45742 2.830 -4.538 2.106 0.63768 10.09822 -3.54747 3.572 0.208 1.264 -12.91471 1.72955 -3.10174 0.725 -0.595 1.534 -10.16404 21.79155 -0.89203 0.600 1.684 3.673 -9.17838 4.70260 -14.59492 1.998 -3.384 -0.870 3.41634 -4.11278 -0.96662 3.003 3.487 -2.023 0.87198 -4.60235 9.05078 2.907 -1.025 2.064 -8.36827 -0.03941 4.27872 1.809 1.340 2.075 -6.17149 -16.74470 -1.43515 0.860 -1.763 -2.542 -15.06212 -21.30052 -0.11556 -3.211 4.909 1.222 -1.22001 -32.64470 6.06247 -2.048 -2.136 -1.280 4.96602 -19.37203 14.16059 1.545 0.927 2.610 -4.17991 -22.84062 12.39205 -1.037 1.681 -3.701 -4.36112 -22.74634 29.79600 1.832 0.748 3.075 -17.96711 -23.39652 11.11890 -2.259 4.167 0.514 -4.30607 -35.55358 18.57634 5.468 4.137 1.765 -13.77109 -39.72352 19.53913 2.811 0.442 3.192 -27.98312 -19.90284 3.39982 1.485 2.972 -3.066 -22.39539 -22.40099 21.54695 -3.870 5.147 0.159 -1.98554 -34.42056 29.81889 4.398 0.607 3.610 -38.48580 -21.63830 15.09904 2.055 1.098 5.403 -36.31311 -25.13975 7.27748 2.363 4.999 1.864 -37.76686 -46.18999 6.94829 6.588 -0.117 -1.205 -45.73761 -31.53067 3.69360 -0.145 -3.400 1.462 -36.07072 -27.99863 0.05333 1.083 2.534 2.528 -29.59044 -38.96586 6.08959 -0.476 3.765 -3.048 -34.44910 -45.36715 22.19257 4.122 -0.895 4.661 -71.13863 -19.73470 18.43072 -4.307 8.152 4.131 -55.91250 -35.69084 15.36608 -3.609 4.582 -1.581 -57.85977 -35.08399 24.97584 1.884 -2.719 2.836 -56.79544 -19.96873 42.77230 2.332 2.556 4.514 -57.17997 -18.45012 18.96236 0.518 2.376 2.499 -7.68555 -32.13039 33.70861 2.214 0.030 4.028 -21.94697 -13.20957 15.90541 1.658 0.588 2.951 -32.96862 -9.95876 18.50656 -4.271 -0.954 0.695 3.49601 4.97710 29.34560 0.529 -0.540 1.503 -18.17673 0.66004 27.50987 3.314 1.325 2.287 -33.22523 -3.68224 30.90456 1.731 1.048 2.799 -44.89117 -8.19049 32.90398 1.209 0.772 3.014 -45.98954 -0.12866 25.29070 -2.566 -1.610 0.515 -31.43048 9.57016 28.61667 0.399 2.271 4.726 -33.38297 8.46537 15.12342 1.349 1.204 3.418 -36.91179 0.93546 10.26741 -3.038 0.055 -2.184 -40.91520 -3.98461 19.05796 2.283 5.765 -0.720 -51.59009 -26.40577 30.80780 0.600 5.461 2.319 -42.58739 -40.80585 28.50503 -1.556 -5.994 0.511 -34.25066 -14.44930 29.21075 -3.859 1.708 1.902 -7.61986 -16.19436 22.27319 1.640 0.815 2.542 -21.91098 -16.35643 -3.58222 -0.867 -1.157 2.554 -18.82804 -4.45666 0.91513 1.028 0.678 -3.271 -11.24776 -3.03377 14.03531 -1.815 -2.465 -1.071 -0.30632 3.32011 19.65624 -2.788 1.298 0.675 17.53132 -0.02508 13.70822 0.809 -2.305 3.386 24.63971 14.43115 10.31921 0.298 1.260 -3.654 20.83441 5.12706 18.60977 3.458 -3.838 -0.571 7.58892 14.80834 19.14307 0.983 0.526 -1.725 4.68735 8.27107 9.10612 -1.698 -0.803 -0.924 45.34557 46.84250 -55.37104 -4.778 9.692 -1.926 63.43038 43.31874 -50.53289 6.887 -0.013 2.946 57.89289 49.30033 -63.28818 4.012 -10.488 -3.632 49.59436 55.68361 -64.09951 2.869 9.799 -3.222 40.03509 49.58695 -65.45012 5.231 -8.079 -11.860 42.55043 60.63068 -53.56077 -10.657 3.289 -11.981 56.47202 57.57131 -54.74910 2.514 4.212 -6.512 52.05437 51.56832 -47.34196 2.392 4.138 -5.764 51.18676 36.85322 -38.14326 0.094 4.438 -7.938 44.88898 17.41297 -32.08627 6.564 0.434 6.988 32.62340 21.10509 -41.02647 6.826 -9.117 -11.139 29.25566 35.39257 -41.85684 -9.432 8.344 7.689 46.92641 24.82784 -43.14365 -0.591 -8.916 -2.905 33.36945 35.27494 -28.43471 2.521 2.956 -9.198 32.42380 38.19937 -12.83396 4.932 7.622 5.361 28.08500 33.56821 -30.28208 7.810 1.062 -13.028 20.68532 28.87024 -21.99930 2.039 1.854 -8.023 23.78879 23.19825 -9.76553 5.712 1.873 -6.022 16.32444 24.80790 -27.25061 2.081 -4.226 -9.772 20.86963 40.66677 -18.04701 0.727 4.326 -10.900 27.73080 13.97189 2.66068 4.345 13.137 -2.766 28.12857 -3.21279 3.21944 -1.267 -0.745 7.087 26.72849 -1.11727 -11.39706 5.401 -3.345 -4.950 27.49802 10.54809 -20.60391 -9.192 0.578 -13.332 38.33712 0.57697 -10.25403 1.017 2.727 -7.163 33.68522 7.06207 -2.84588 0.927 -11.971 -1.789 
2.15703 -26.02444 -1.30610 1.149 -3.257 2.745 7.43602 -12.42867 -6.30258 3.168 -5.684 2.209 0.78316 10.01206 -3.66634 2.564 0.448 1.058 -12.71775 1.53402 -3.36641 1.152 -2.646 2.096 -10.03249 21.60787 -1.43423 2.405 2.025 2.397 -8.85518 4.27975 -14.92388 3.736 -2.226 -0.871 3.59786 -4.12028 -0.87188 3.012 3.708 -2.065 0.95172 -4.57768 9.11445 3.642 -1.345 2.083 -8.19110 -0.07179 4.29153 2.027 1.840 1.829 -5.98689 -16.76797 -1.38429 0.866 -1.573 -2.951 -14.84800 -21.32555 -0.10056 -3.278 5.185 1.120 -1.05399 -32.67074 6.13209 -2.360 -1.912 -1.527 5.11294 -19.39635 14.27718 1.389 1.331 2.601 -4.08518 -22.89974 12.45789 -1.382 2.124 -4.011 -4.28751 -22.80209 29.81285 1.860 0.950 3.502 -17.84815 -23.41657 11.09867 -2.279 4.361 0.642 -4.26571 -35.60509 18.52854 4.909 4.356 2.185 -13.71509 -39.71457 19.42826 2.936 0.362 3.503 -27.85893 -19.84764 3.32155 1.285 3.329 -3.500 -22.33919 -22.44471 21.51124 -4.211 5.592 0.250 -1.96447 -34.50071 29.80822 4.809 0.984 3.968 -38.36299 -21.50657 15.01715 1.654 1.222 5.146 -36.23873 -25.02531 7.15043 2.052 4.538 2.369 -37.78772 -46.05010 6.72001 6.648 -0.212 -1.266 -45.65817 -31.32965 3.58002 -0.705 -3.802 1.725 -35.99244 -27.85701 -0.07199 0.589 2.776 2.803 -29.56616 -38.90889 5.90945 -0.968 4.012 -3.281 -34.43256 -45.29053 21.99882 4.134 -1.488 5.302 -71.01014 -19.46794 18.43679 -4.243 7.541 4.666 -55.88969 -35.53434 15.19338 -3.563 4.314 -0.791 -57.78543 -34.94107 24.86904 1.386 -2.081 3.181 -56.59086 -19.93014 42.77059 1.439 2.160 4.072 -57.08144 -18.35385 18.90223 -0.482 2.746 2.663 -7.65433 -32.20195 33.69747 1.937 0.397 4.127 -21.80411 -13.19558 15.86762 1.617 0.699 3.137 -32.86394 -9.94742 18.49767 -4.295 -0.772 0.734 3.55760 4.93318 29.42762 1.031 -0.165 1.377 -18.06765 0.64628 27.49369 3.697 1.624 2.367 -33.11697 -3.64751 30.85104 1.904 1.270 2.948 -44.78721 -8.11378 32.82591 1.184 0.887 3.217 -45.84854 -0.07105 25.23082 -2.826 -1.603 0.566 -31.26718 9.58625 28.58916 0.389 2.410 4.907 -33.17392 8.50635 15.08398 1.302 1.431 3.667 -36.74608 0.97915 10.22007 -3.414 0.206 -2.356 -40.79355 -3.92363 18.99353 2.320 5.979 -0.645 -51.51036 -26.36339 30.67967 0.580 4.454 2.860 -42.55568 -40.79241 28.32123 -2.104 -6.125 0.732 -34.17425 -14.46077 29.17495 -4.291 1.957 2.094 -7.49169 -16.22577 22.29020 1.637 1.057 2.783 -21.67988 -16.40109 -3.60461 -1.253 -1.202 2.711 -18.66305 -4.48164 0.88353 1.165 0.916 -3.401 -11.15303 -3.05547 14.07645 -1.461 -1.675 -0.909 -0.27786 3.35499 19.74044 -2.732 1.106 0.462 17.47573 0.06376 13.74702 0.585 -2.491 2.608 24.63594 14.43172 10.27807 -0.256 1.047 -3.511 20.86284 5.17319 18.68717 2.889 -3.852 -0.749 7.60545 14.83919 19.28009 0.635 0.374 -1.829 4.60469 8.26119 9.22663 -1.635 -0.997 -0.614 45.21835 46.49184 -55.28802 -5.433 11.006 -1.445 63.30724 43.07358 -50.40902 7.687 0.144 2.642 57.72078 48.89010 -63.29074 4.917 -10.808 -3.627 49.41801 55.21419 -64.12353 3.581 11.340 -3.203 39.83548 49.12532 -65.51922 6.190 -8.583 -12.048 42.32381 60.37231 -53.66798 -11.226 3.122 -12.960 56.28436 57.33929 -54.77491 3.229 4.529 -7.438 51.89543 51.39895 -47.31108 3.000 4.102 -6.248 51.04981 36.75446 -37.91529 0.768 4.444 -7.997 44.72138 17.33705 -31.68697 7.167 0.711 6.798 32.46972 21.04142 -40.75835 7.934 -10.096 -10.851 29.12505 35.22321 -41.70233 -8.157 8.591 7.204 46.78958 24.62300 -42.88011 -0.022 -9.624 -2.306 33.40227 35.30651 -28.22778 2.914 2.606 -9.199 32.35595 38.30208 -12.66660 4.621 6.865 4.815 28.00779 33.72030 -30.11319 7.578 0.789 -11.737 20.51130 29.08204 -21.82276 1.731 1.665 -7.192 23.59772 23.47847 -9.56567 5.383 1.334 -5.086 16.15739 25.16612 -27.01182 1.805 -3.456 -8.570 20.88198 40.89498 -17.82119 0.761 3.919 -9.946 27.52616 14.01146 2.62906 3.865 10.798 -2.147 27.64843 -3.22390 2.97738 -1.357 -1.374 5.322 26.13461 -0.84111 -11.46756 3.002 -2.266 -4.652 26.94934 10.71468 -20.73345 -7.282 0.212 -10.397 37.60566 0.55195 -10.66318 0.521 1.554 -5.983 33.38388 6.96983 -2.99016 -0.035 -10.713 -1.809 
